<?xml version="1.0" encoding="utf-8"?>
<!-- Generator: Adobe Illustrator 19.1.0, SVG Export Plug-In . SVG Version: 6.00 Build 0)  -->
<svg version="1.1" id="Layer_1" xmlns="http://www.w3.org/2000/svg" xmlns:xlink="http://www.w3.org/1999/xlink" x="0px" y="0px"
	 viewBox="0 0 612 792" style="enable-background:new 0 0 612 792;" xml:space="preserve">
<style type="text/css">
	.st0{fill:#ADD7A1;stroke:#010101;stroke-width:2;stroke-miterlimit:10;}
	.st1{fill:#11A049;stroke:#010101;stroke-width:0.9617;stroke-miterlimit:10;}
	.st2{fill:#11A049;stroke:#010101;stroke-width:0.7278;stroke-miterlimit:10;}
	.st3{fill:#90CA70;stroke:#010101;stroke-miterlimit:10;}
</style>
<circle class="st0" cx="331.2" cy="384.8" r="75.4"/>
<rect x="319.6" y="299.3" class="st1" width="28.1" height="6.1"/>
<rect x="326.3" y="305.5" class="st1" width="12.7" height="3.9"/>
<rect x="312.9" y="296.6" class="st2" width="40" height="2.7"/>
<rect x="257.5" y="324.9" transform="matrix(-0.7074 0.7068 -0.7068 -0.7074 695.4798 368.1027)" class="st1" width="28.1" height="6.1"/>
<rect x="268.1" y="330.3" transform="matrix(-0.7074 0.7068 -0.7068 -0.7074 703.3848 373.2353)" class="st1" width="12.7" height="3.8"/>
<rect x="248" y="324" transform="matrix(-0.7074 0.7068 -0.7068 -0.7074 687.481 366.1288)" class="st2" width="40" height="2.7"/>
<rect x="379.9" y="328.2" transform="matrix(-0.7068 -0.7074 0.7074 -0.7068 437.9805 844.0524)" class="st1" width="28.1" height="6.1"/>
<rect x="383.4" y="332.2" transform="matrix(-0.7068 -0.7074 0.7074 -0.7068 428.7836 846.0572)" class="st1" width="12.7" height="3.8"/>
<rect x="376.6" y="326.3" transform="matrix(-0.7068 -0.7074 0.7074 -0.7068 445.1371 839.816)" class="st2" width="40" height="2.7"/>
<rect x="234.7" y="380.2" transform="matrix(-4.728607e-004 1 -1 -4.728607e-004 632.1229 134.714)" class="st1" width="28.1" height="6.1"/>
<rect x="247.5" y="382.3" transform="matrix(-4.728607e-004 1 -1 -4.728607e-004 638.1633 130.564)" class="st1" width="12.7" height="3.9"/>
<rect x="224.3" y="382.7" transform="matrix(-4.728607e-004 1 -1 -4.728607e-004 628.4837 139.8757)" class="st2" width="40" height="2.7"/>
<rect x="399.5" y="382.4" transform="matrix(4.728606e-004 -1 1 4.728606e-004 27.8549 798.7915)" class="st1" width="28.1" height="6.1"/>
<rect x="402.1" y="382.6" transform="matrix(4.728606e-004 -1 1 4.728606e-004 23.7067 792.854)" class="st1" width="12.7" height="3.9"/>
<rect x="397.9" y="383.4" transform="matrix(4.728606e-004 -1 1 4.728606e-004 32.9642 802.479)" class="st2" width="40" height="2.7"/>
<rect x="315.8" y="463.7" class="st1" width="28.1" height="6.1"/>
<rect x="324.4" y="459.8" class="st1" width="12.7" height="3.9"/>
<rect x="310.5" y="469.8" class="st2" width="40" height="2.7"/>
<rect x="377.8" y="438" transform="matrix(0.7074 -0.7068 0.7068 0.7074 -197.122 406.0034)" class="st1" width="28.1" height="6.1"/>
<rect x="382.6" y="434.9" transform="matrix(0.7074 -0.7068 0.7068 0.7074 -194.989 402.7106)" class="st1" width="12.7" height="3.8"/>
<rect x="375.4" y="442.4" transform="matrix(0.7074 -0.7068 0.7068 0.7074 -197.9449 409.3293)" class="st2" width="40" height="2.7"/>
<rect x="255.4" y="434.8" transform="matrix(0.7068 0.7074 -0.7074 0.7068 388.7462 -62.2312)" class="st1" width="28.1" height="6.1"/>
<rect x="267.4" y="433" transform="matrix(0.7068 0.7074 -0.7074 0.7068 387.9003 -66.108)" class="st1" width="12.7" height="3.8"/>
<rect x="246.8" y="440.1" transform="matrix(0.7068 0.7074 -0.7074 0.7068 390.4877 -59.2884)" class="st2" width="40" height="2.7"/>
<polyline class="st3" points="368.2,449.1 372.6,457.8 357.5,465 353.1,455.7 "/>
</svg>
