<?xml version="1.0" encoding="utf-8"?>
<!-- Generator: Adobe Illustrator 19.0.0, SVG Export Plug-In . SVG Version: 6.00 Build 0)  -->
<svg version="1.1" id="Layer_1" xmlns="http://www.w3.org/2000/svg" xmlns:xlink="http://www.w3.org/1999/xlink" x="0px" y="0px"
	 viewBox="0 0 612 792" style="enable-background:new 0 0 612 792;" xml:space="preserve">
<style type="text/css">
	.st0{fill:#F7931E;}
	.st1{fill:#FF0000;}
	.st2{fill:#FFFF00;}
	.st3{fill:none;stroke:#000000;stroke-width:0.25;stroke-miterlimit:10;}
</style>
<g>
	<g id="XMLID_1_">
		<g>
			<polygon class="st0" points="343.4,414.7 344.3,419.4 343.6,425.9 341.6,430 338.5,436.1 338.4,436.3 335.9,440.5 333.5,437.6 
				329.6,436.4 331.6,425.3 332.1,424.8 330.9,408 332.5,410.4 334.5,412.5 335.1,412.5 335.6,411.5 335.3,408.6 333.7,402.8 
				335.9,405.4 337.8,408 339.1,410.6 340.1,413.7 340.9,416.9 341.2,412.5 340.9,408 343,412.8 			"/>
			<polygon class="st1" points="341.6,430 340.1,433.2 338.5,436.1 			"/>
			<polygon class="st1" points="340.9,408 341.2,412.5 340.9,416.9 340.1,413.7 339.1,410.6 337.8,408 335.9,405.4 333.7,402.8 
				335.3,408.6 335.6,411.5 335.1,412.5 334.5,412.5 332.5,410.4 330.9,408 330.9,408 329.7,391.5 329.7,390.7 329.4,387.1 
				335.5,376 336.4,379.4 338.7,386.7 340.4,392.9 340.9,401.1 			"/>
			<polygon class="st1" points="338.4,436.3 336.4,439.9 335.9,440.5 			"/>
			<polygon class="st1" points="336.4,356.1 334.9,361.8 334.6,366.8 334.6,372.4 335.5,376 329.4,387.1 329.7,390.7 327.9,393 
				327.5,393.9 327.3,387.7 326.1,381.9 325.8,376.6 326.7,369.3 329,363.3 332.8,358.2 			"/>
			<polygon class="st0" points="333.5,437.6 335.9,440.5 332.5,445.1 330.1,441.5 327,440.3 324.2,440 323.2,439.6 322.3,437.2 
				322.1,434.9 325.4,431.6 325.4,431.7 326.5,434.8 328.6,436 329.6,436.4 			"/>
			<polygon class="st2" points="332.5,445.1 330.9,447.3 324.2,453.7 317.7,455 302.3,455 317.2,439.9 322.1,434.9 322.3,437.2 
				323.2,439.6 324.2,440 327,440.3 330.1,441.5 			"/>
			<polygon class="st0" points="330.9,408 332.1,424.8 331.6,425.3 329.7,419.4 327.6,415.8 325.8,413.1 324.7,409.5 324,405.9 
				324.3,401.8 325.8,397.1 327.5,393.9 327.9,393 329.7,390.7 329.7,391.5 329.2,393 328.8,396.5 329,400.5 329.2,404.2 
				330.1,406.7 330.9,408 			"/>
			<polygon class="st1" points="331.6,425.3 329.6,436.4 328.6,436 326.5,434.8 325.4,431.7 325.4,431.6 			"/>
			<polygon class="st1" points="329.7,419.4 331.6,425.3 325.4,431.6 324.9,427.8 325.5,424.8 327,422.3 325.4,423.3 323.6,425.4 
				322,428.6 321.3,425.9 321.3,422.3 321.9,418.3 322.1,415.5 321.8,413.3 320.9,410.6 319.3,408 322.3,406.8 324,405.9 
				324.7,409.5 325.8,413.1 327.6,415.8 			"/>
			<polygon class="st1" points="329.7,391.5 330.9,408 330.1,406.7 329.2,404.2 329,400.5 328.8,396.5 329.2,393 			"/>
			<polygon class="st0" points="327,422.3 325.5,424.8 324.9,427.8 325.4,431.6 322.1,434.9 322,433.2 320.9,431.1 320.5,427.1 
				320.5,425.9 321.3,425.9 322,428.6 323.6,425.4 325.4,423.3 			"/>
			<polygon class="st2" points="322,433.2 322.1,434.9 317.2,439.9 318.3,438.6 318.6,436.8 318.3,432 318.3,428.6 319.5,425.1 
				320.5,424.4 320.5,425.9 320.5,427.1 320.9,431.1 			"/>
			<polygon class="st0" points="321.8,413.3 322.1,415.5 321.9,418.3 321.3,422.3 321.3,425.9 320.5,425.9 320.5,424.4 319.5,425.1 
				318.3,428.6 318.3,432 318.6,436.8 318.3,438.6 317.2,439.9 316.5,436.8 316.3,434.2 316.5,431.1 317,429.3 315.6,430.8 315,432 
				314.5,427.2 314.5,424.8 315.2,421.9 316.7,417.7 317.7,415 317.7,412.3 317.2,408.9 317,408.3 316.5,406.2 318,406.7 319.3,408 
				320.9,410.6 			"/>
			<polygon class="st1" points="321.2,346.1 321.8,353.5 321.4,361.8 318.7,368.6 312.9,378.3 308.5,386.7 306.6,393.1 306.6,398.5 
				308.5,404.2 311.9,406.7 315,408 317,408.3 317.2,408.9 317.7,412.3 317.7,415 316.7,417.7 315.2,421.9 314.5,424.8 314.5,427.2 
				315,432 314.5,433.2 314.1,435.3 313.3,437 312.8,439.6 312.2,438.2 311.7,437.9 311.9,435.3 311.6,431.7 312.2,429.2 
				312.5,426.3 311.3,420.2 310,417.4 308,414.7 306.6,413.3 308,417.3 308.2,420.2 308,421.1 306.6,420.5 304.9,418.5 303.8,416.1 
				302.9,412.8 302.8,409.9 302.8,407.3 303,404.2 299.8,409.1 298.9,413.1 298.9,417.2 299.7,419.8 298.8,422.5 298.5,420.3 
				298,417.2 297,413.8 295.7,410.3 294.8,406.2 294.4,401.1 295.1,398 295.9,396.2 293.5,397.6 291.6,400.1 291.1,401.3 
				289.3,395.2 288.5,390.3 288.3,389.1 287.8,382.8 288.3,377.3 289.4,372.5 293.9,381.8 298.5,362.8 299.2,364.3 298.9,367.8 
				299.8,369 301.1,368.6 304.6,376.5 			"/>
			<polygon class="st1" points="321.1,344.3 321.2,346.1 304.6,376.5 301.1,368.6 302.2,368.2 306,363.4 308.9,357.6 311.9,351.8 
				312.9,344.6 312.9,338.3 312.4,331.8 311.3,326.1 314.6,330.7 318.7,337.6 			"/>
			<polygon class="st2" points="316.5,436.8 317.2,439.9 302.3,455 291.1,453.7 287.7,452.1 275.7,434.7 277.9,430.4 278.7,427.2 
				277.9,422 278.5,422.5 278.5,422.5 279.8,423.6 280.6,426.2 281,427.4 281,432.3 281,436.8 282.3,439.2 284.2,439.6 286.3,438.7 
				287,436.8 286.6,433.2 284.6,428.8 283.1,425.4 282.3,422.5 282.7,418 284.2,414.1 285.7,411.5 285.2,414.7 285.2,417.7 
				285.4,420.4 286.6,423.7 287.8,425.9 289,426.6 289,425.4 288.7,421.5 288.2,419.6 289.9,422.3 289.9,422.3 290.2,422.8 
				291.2,424.8 292.1,427.8 292.3,432.4 292.9,432.9 293.8,432.7 294.2,430.3 293.8,424.1 293.3,419.8 292.9,418 292.3,417.2 
				294.4,417.6 295.9,418.3 297,420.5 297.4,423.2 297.2,427.1 296.8,430.8 297,433.8 297.8,435.3 298.6,436 298.9,432.9 
				298.8,430.8 298,428.9 299.7,431.1 301.3,428.6 302.4,427.8 301.8,429.2 301.1,431.7 301.5,433.8 302.1,436.8 304.4,442.6 
				304.9,438.8 304.9,435.1 306,432.4 307.2,431 307.2,433.8 307.5,436.4 308.5,438.8 310.3,441 311.3,441.5 311.8,440.7 
				311.3,439.3 310.3,436.8 311.7,437.9 312.2,438.2 312.8,439.6 313.3,437 314.1,435.3 314.5,433.2 315,432 315.6,430.8 317,429.3 
				316.5,431.1 316.3,434.2 			"/>
			<polygon class="st0" points="311.3,420.2 312.5,426.3 312.2,429.2 311.6,431.7 311.9,435.3 311.7,437.9 310.3,436.8 311.3,439.3 
				311.8,440.7 311.3,441.5 310.3,441 308.5,438.8 307.5,436.4 307.2,433.8 307.2,431 306,432.4 304.9,435.1 304.9,438.8 
				304.4,442.6 302.1,436.8 301.5,433.8 301.1,431.7 301.8,429.2 302.4,427.8 301.3,428.6 299.7,431.1 298,428.9 298.8,430.8 
				298.9,432.9 298.6,436 297.8,435.3 297,433.8 296.8,430.8 297.2,427.1 297.4,423.2 297,420.5 298.5,420.3 298.8,422.5 
				299.7,419.8 298.9,417.2 298.9,413.1 299.8,409.1 303,404.2 302.8,407.3 302.8,409.9 302.9,412.8 303.8,416.1 304.9,418.5 
				306.6,420.5 308,421.1 308.2,420.2 308,417.3 306.6,413.3 308,414.7 310,417.4 			"/>
			<polygon class="st1" points="302.2,349 300.4,355.7 299.3,362.3 299.2,364.3 298.5,362.8 293.9,381.8 289.4,372.5 289.7,371.3 
				290.8,366.8 290.5,365.7 292.9,360.9 296.4,354.9 			"/>
			<polygon class="st0" points="298,417.2 298.5,420.3 297,420.5 295.9,418.3 294.4,417.6 292.3,417.2 292.9,418 293.3,419.8 
				293.8,424.1 294.2,430.3 293.8,432.7 292.9,432.9 292.3,432.4 292.1,427.8 291.2,424.8 290.2,422.8 289.9,422.3 289.9,422.3 
				290.2,419.8 290,416.1 289.5,412 289.8,407.5 290.2,403.4 291.1,401.4 291.1,401.3 291.6,400.1 293.5,397.6 295.9,396.2 
				295.1,398 294.4,401.1 294.8,406.2 295.7,410.3 297,413.8 			"/>
			<polygon class="st1" points="291.1,401.3 291.1,401.4 290.2,403.4 289.8,407.5 289.5,412 290,416.1 290.2,419.8 289.9,422.3 
				288.2,419.6 288.7,421.5 289,425.4 289,426.6 287.8,425.9 286.6,423.7 285.4,420.4 285.2,417.7 285.2,414.7 285.7,411.5 
				284.2,414.1 282.7,418 282.3,422.5 283.1,425.4 280.6,426.2 279.8,423.6 278.5,422.5 278.5,422.5 277.9,419.4 278.9,415.4 
				280.9,411.5 282.3,408.4 284.2,405.6 285.7,402.4 286.6,399.4 287,395.2 287,390.6 288.5,390.3 289.3,395.2 			"/>
			<polygon class="st1" points="290.5,365.7 290.8,366.8 289.7,371.3 289.4,372.5 285.2,363.7 285.5,361.8 285.3,357.3 284.6,353.5 
				287.3,357.2 288.7,360.1 			"/>
			<polygon class="st1" points="289.4,372.5 288.3,377.3 287.8,382.8 288.3,389.1 288.5,390.3 287,390.6 285.3,385.8 282.5,380.6 
				280.3,378.3 279.8,376.3 281,375 283.2,371.8 284.6,367.8 285.2,363.7 			"/>
			<polygon class="st2" points="287.7,452.1 282.7,449.8 280.3,445.9 274.9,439.3 274.1,437.7 274.3,437.6 275.7,434.7 			"/>
			<polygon class="st0" points="287,390.6 287,395.2 286.6,399.4 285.7,402.4 284.2,405.6 282.3,408.4 280.9,411.5 278.9,415.4 
				277.9,419.4 278.5,422.5 277.9,422 278.7,427.2 277.9,430.4 275.7,434.7 269.2,425.2 268.3,422 266.9,412.1 267.8,404.6 
				269.7,399.4 273.1,394.1 274.3,393.1 275.5,392 274.3,396.8 273.4,400.1 273.4,403 273.9,403.8 275.8,403 278.9,398.2 
				280.6,394.1 281.5,387.7 280.3,378.3 282.5,380.6 285.3,385.8 			"/>
			<polygon class="st1" points="286.6,433.2 287,436.8 286.3,438.7 284.2,439.6 282.3,439.2 281,436.8 281,432.3 281,427.4 
				280.6,426.2 283.1,425.4 284.6,428.8 			"/>
			<polygon class="st1" points="280.3,378.3 281.5,387.7 280.6,394.1 278.9,398.2 275.8,403 273.9,403.8 273.4,403 273.4,400.1 
				274.3,396.8 275.5,392 274.3,393.1 273.4,389.6 272.8,383.9 273.1,378.8 274.3,374.5 275.3,372.7 277.7,379 277.2,369.5 
				277.9,368.2 279.8,366.1 278.9,369.6 278.8,374.5 278.8,376.3 279.8,376.3 			"/>
			<polygon class="st1" points="277.2,369.5 277.7,379 275.3,372.7 			"/>
			<polygon class="st0" points="269.2,425.2 275.7,434.7 274.3,437.6 274.1,437.7 270.7,431 			"/>
		</g>
		<g>
			<polyline class="st3" points="274.3,393.1 273.4,389.6 272.8,383.9 273.1,378.8 274.3,374.5 275.3,372.7 277.2,369.5 
				277.9,368.2 279.8,366.1 278.9,369.6 278.8,374.5 278.8,376.3 279.8,376.3 281,375 283.2,371.8 284.6,367.8 285.2,363.7 
				285.5,361.8 285.3,357.3 284.6,353.5 287.3,357.2 288.7,360.1 290.5,365.7 290.8,366.8 289.7,371.3 289.4,372.5 288.3,377.3 
				287.8,382.8 288.3,389.1 288.5,390.3 289.3,395.2 291.1,401.3 			"/>
			<polyline class="st3" points="317,408.3 315,408 311.9,406.7 308.5,404.2 306.6,398.5 306.6,393.1 308.5,386.7 312.9,378.3 
				318.7,368.6 321.4,361.8 321.8,353.5 321.2,346.1 321.1,344.3 318.7,337.6 314.6,330.7 311.3,326.1 312.4,331.8 312.9,338.3 
				312.9,344.6 311.9,351.8 308.9,357.6 306,363.4 302.2,368.2 301.1,368.6 299.8,369 298.9,367.8 299.2,364.3 299.3,362.3 
				300.4,355.7 302.2,349 296.4,354.9 292.9,360.9 290.5,365.7 			"/>
			<polyline class="st3" points="324,405.9 322.3,406.8 319.3,408 			"/>
			<polyline class="st3" points="330.9,408 332.5,410.4 334.5,412.5 335.1,412.5 335.6,411.5 335.3,408.6 333.7,402.8 335.9,405.4 
				337.8,408 339.1,410.6 340.1,413.7 340.9,416.9 341.2,412.5 340.9,408 340.9,401.1 340.4,392.9 338.7,386.7 336.4,379.4 
				335.5,376 334.6,372.4 334.6,366.8 334.9,361.8 336.4,356.1 332.8,358.2 329,363.3 326.7,369.3 325.8,376.6 326.1,381.9 
				327.3,387.7 327.5,393.9 			"/>
			<polyline class="st3" points="324,405.9 324.3,401.8 325.8,397.1 327.5,393.9 327.9,393 329.7,390.7 329.7,391.5 329.2,393 
				328.8,396.5 329,400.5 329.2,404.2 330.1,406.7 330.9,408 			"/>
			<polyline class="st3" points="329.6,436.4 331.6,425.3 329.7,419.4 327.6,415.8 325.8,413.1 324.7,409.5 324,405.9 			"/>
			<line class="st3" x1="338.4" y1="436.3" x2="335.9" y2="440.5"/>
			<line class="st3" x1="341.6" y1="430" x2="338.5" y2="436.1"/>
			<polyline class="st3" points="335.9,440.5 336.4,439.9 338.4,436.3 338.5,436.1 340.1,433.2 341.6,430 343.6,425.9 344.3,419.4 
				343.4,414.7 343,412.8 340.9,408 			"/>
			<polyline class="st3" points="278.5,422.5 277.9,419.4 278.9,415.4 280.9,411.5 282.3,408.4 284.2,405.6 285.7,402.4 
				286.6,399.4 287,395.2 287,390.6 285.3,385.8 282.5,380.6 280.3,378.3 281.5,387.7 280.6,394.1 278.9,398.2 275.8,403 
				273.9,403.8 273.4,403 273.4,400.1 274.3,396.8 275.5,392 274.3,393.1 273.1,394.1 269.7,399.4 267.8,404.6 266.9,412.1 
				268.3,422 269.2,425.2 270.7,431 274.1,437.7 274.9,439.3 280.3,445.9 282.7,449.8 287.7,452.1 291.1,453.7 302.3,455 317.7,455 
				324.2,453.7 330.9,447.3 332.5,445.1 			"/>
			<polyline class="st3" points="311.7,437.9 311.9,435.3 311.6,431.7 312.2,429.2 312.5,426.3 311.3,420.2 310,417.4 308,414.7 
				306.6,413.3 308,417.3 308.2,420.2 308,421.1 306.6,420.5 304.9,418.5 303.8,416.1 302.9,412.8 302.8,409.9 302.8,407.3 
				303,404.2 299.8,409.1 298.9,413.1 298.9,417.2 299.7,419.8 298.8,422.5 298.5,420.3 298,417.2 297,413.8 295.7,410.3 
				294.8,406.2 294.4,401.1 295.1,398 295.9,396.2 293.5,397.6 291.6,400.1 291.1,401.3 291.1,401.4 290.2,403.4 289.8,407.5 
				289.5,412 290,416.1 290.2,419.8 289.9,422.3 			"/>
			<polyline class="st3" points="274.3,437.6 275.7,434.7 277.9,430.4 278.7,427.2 277.9,422 278.5,422.5 278.5,422.5 279.8,423.6 
				280.6,426.2 281,427.4 281,432.3 281,436.8 282.3,439.2 284.2,439.6 286.3,438.7 287,436.8 286.6,433.2 284.6,428.8 283.1,425.4 
				282.3,422.5 282.7,418 284.2,414.1 285.7,411.5 285.2,414.7 285.2,417.7 285.4,420.4 286.6,423.7 287.8,425.9 289,426.6 
				289,425.4 288.7,421.5 288.2,419.6 289.9,422.3 289.9,422.3 290.2,422.8 291.2,424.8 292.1,427.8 292.3,432.4 292.9,432.9 
				293.8,432.7 294.2,430.3 293.8,424.1 293.3,419.8 292.9,418 292.3,417.2 294.4,417.6 295.9,418.3 297,420.5 297.4,423.2 
				297.2,427.1 296.8,430.8 297,433.8 297.8,435.3 298.6,436 298.9,432.9 298.8,430.8 298,428.9 299.7,431.1 301.3,428.6 
				302.4,427.8 301.8,429.2 301.1,431.7 301.5,433.8 302.1,436.8 304.4,442.6 304.9,438.8 304.9,435.1 306,432.4 307.2,431 
				307.2,433.8 307.5,436.4 308.5,438.8 310.3,441 311.3,441.5 311.8,440.7 311.3,439.3 310.3,436.8 311.7,437.9 312.2,438.2 
				312.8,439.6 313.3,437 314.1,435.3 314.5,433.2 315,432 315.6,430.8 317,429.3 316.5,431.1 316.3,434.2 316.5,436.8 317.2,439.9 
				318.3,438.6 318.6,436.8 318.3,432 318.3,428.6 319.5,425.1 320.5,424.4 320.5,425.9 320.5,427.1 320.9,431.1 322,433.2 
				322.1,434.9 322.3,437.2 323.2,439.6 324.2,440 327,440.3 330.1,441.5 332.5,445.1 335.9,440.5 333.5,437.6 329.6,436.4 
				328.6,436 326.5,434.8 325.4,431.7 325.4,431.6 324.9,427.8 325.5,424.8 327,422.3 325.4,423.3 323.6,425.4 322,428.6 
				321.3,425.9 321.3,422.3 321.9,418.3 322.1,415.5 321.8,413.3 320.9,410.6 319.3,408 318,406.7 316.5,406.2 317,408.3 
				317.2,408.9 317.7,412.3 317.7,415 316.7,417.7 315.2,421.9 314.5,424.8 314.5,427.2 315,432 			"/>
		</g>
	</g>
</g>
</svg>
