<?xml version="1.0" encoding="utf-8"?>
<!-- Generator: Adobe Illustrator 19.1.0, SVG Export Plug-In . SVG Version: 6.00 Build 0)  -->
<svg version="1.1" id="Layer_1" xmlns="http://www.w3.org/2000/svg" xmlns:xlink="http://www.w3.org/1999/xlink" x="0px" y="0px"
	 viewBox="0 0 612 792" style="enable-background:new 0 0 612 792;" xml:space="preserve">
<style type="text/css">
	.st0{fill:none;stroke:#010101;stroke-width:0.3905;stroke-miterlimit:10;}
	.st1{fill:#019547;stroke:#010101;stroke-width:0.3905;stroke-miterlimit:10;}
	.st2{fill:#EF3D23;stroke:#010101;stroke-width:0.3905;stroke-miterlimit:10;}
	.st3{fill:none;stroke:#010101;stroke-width:0.2776;stroke-miterlimit:10;}
	.st4{fill:none;stroke:#010101;stroke-width:0.1388;stroke-miterlimit:10;}
	.st5{fill:#A8AAAD;stroke:#010101;stroke-width:0.2402;stroke-miterlimit:10;}
	.st6{fill:none;stroke:#010101;stroke-width:0.1801;stroke-miterlimit:10;}
	.st7{fill:#EC2227;stroke:#010101;stroke-width:0.1801;stroke-miterlimit:10;}
	.st8{fill:none;stroke:#010101;stroke-width:9.005000e-002;stroke-miterlimit:10;}
</style>
<g>
	<ellipse class="st0" cx="331.8" cy="387.3" rx="3.1" ry="1.1"/>
	<ellipse class="st1" cx="331.8" cy="383.1" rx="3.4" ry="3.9"/>
	<path class="st0" d="M324.8,378.1c0,3.1,1.6,5.8,3.4,5.8"/>
	<path class="st0" d="M336.8,386.2c0-1.5-0.8-2.7-1.6-2.7"/>
	<rect x="329.8" y="380.8" class="st2" width="0.8" height="3.1"/>
	<rect x="332.9" y="380.8" class="st2" width="0.8" height="3.1"/>
	<ellipse class="st3" cx="331.8" cy="388.9" rx="2.3" ry="0.7"/>
	<ellipse class="st4" cx="331.8" cy="390" rx="1.2" ry="0.4"/>
	<g>
		<rect x="331.1" y="384.2" class="st5" width="1.3" height="2.1"/>
		<line class="st6" x1="331.7" y1="384.2" x2="331.7" y2="384.5"/>
		<line class="st6" x1="331.7" y1="385.8" x2="331.7" y2="386.3"/>
		<rect x="331.5" y="384.5" class="st7" width="0.6" height="1.3"/>
		<line class="st8" x1="331.5" y1="384.9" x2="332" y2="384.9"/>
		<line class="st8" x1="331.5" y1="385.1" x2="332" y2="385.1"/>
		<line class="st8" x1="331.5" y1="385.4" x2="332" y2="385.4"/>
	</g>
</g>
</svg>
