<?xml version="1.0" encoding="utf-8"?>
<!-- Generator: Adobe Illustrator 19.1.0, SVG Export Plug-In . SVG Version: 6.00 Build 0)  -->
<svg version="1.1" id="Layer_1" xmlns="http://www.w3.org/2000/svg" xmlns:xlink="http://www.w3.org/1999/xlink" x="0px" y="0px"
	 viewBox="0 0 612 792" style="enable-background:new 0 0 612 792;" xml:space="preserve">
<style type="text/css">
	.st0{fill:#D2D3D4;stroke:#010101;stroke-width:0.4209;stroke-miterlimit:10;}
	.st1{fill:#922A8E;stroke:#010101;stroke-width:0.4261;stroke-miterlimit:10;}
	.st2{fill:#EC2227;stroke:#010101;stroke-width:0.4209;stroke-miterlimit:10;}
	.st3{fill:none;stroke:#010101;stroke-width:0.4209;stroke-miterlimit:10;}
	.st4{fill:none;stroke:#010101;stroke-width:0.3437;stroke-miterlimit:10;}
	.st5{fill:#A8AAAD;stroke:#010101;stroke-width:0.2246;stroke-miterlimit:10;}
	.st6{fill:none;stroke:#010101;stroke-width:0.1684;stroke-miterlimit:10;}
	.st7{fill:#EC2227;stroke:#010101;stroke-width:0.1684;stroke-miterlimit:10;}
	.st8{fill:none;stroke:#010101;stroke-width:8.420000e-002;stroke-miterlimit:10;}
</style>
<g>
	<path class="st0" d="M331.3,379.3c-1.3,0-2.7,1.2-2.7,2.7h5.4C334,380.6,332.7,379.3,331.3,379.3z"/>
	<rect x="328.6" y="382.1" class="st1" width="5.4" height="7.3"/>
	<ellipse class="st2" cx="330.1" cy="381.1" rx="0.3" ry="0.5"/>
	<ellipse class="st2" cx="332.2" cy="381.1" rx="0.3" ry="0.5"/>
	<path class="st3" d="M325.4,379.1c0,3.3,1.3,6,3.2,6"/>
	<ellipse class="st0" cx="325.4" cy="378.8" rx="0.8" ry="0.3"/>
	<path class="st3" d="M337,387.4c0-2.5-1.3-4.4-3.2-4.4"/>
	<ellipse class="st0" cx="337" cy="387.5" rx="0.8" ry="0.3"/>
	<polyline class="st3" points="328.6,390.9 329.8,390.9 329.8,389.2 	"/>
	<polyline class="st3" points="331.8,390.9 332.8,390.9 332.8,389.2 	"/>
	<line class="st4" x1="331.3" y1="379.3" x2="331.3" y2="378.3"/>
	<ellipse class="st0" cx="331.3" cy="377.9" rx="0.8" ry="0.3"/>
	<g>
		<rect x="332" y="383" class="st5" width="1.2" height="2"/>
		<line class="st6" x1="332.5" y1="383" x2="332.5" y2="383.5"/>
		<line class="st6" x1="332.5" y1="384.5" x2="332.5" y2="385"/>
		<rect x="332.3" y="383.3" class="st7" width="0.5" height="1.2"/>
		<line class="st8" x1="332.3" y1="383.7" x2="332.8" y2="383.7"/>
		<line class="st8" x1="332.3" y1="384" x2="332.8" y2="384"/>
		<line class="st8" x1="332.3" y1="384.3" x2="332.8" y2="384.3"/>
	</g>
</g>
</svg>
