<?xml version="1.0" encoding="utf-8"?>
<!-- Generator: Adobe Illustrator 19.1.0, SVG Export Plug-In . SVG Version: 6.00 Build 0)  -->
<svg version="1.1" id="Layer_1" xmlns="http://www.w3.org/2000/svg" xmlns:xlink="http://www.w3.org/1999/xlink" x="0px" y="0px"
	 viewBox="0 0 612 792" style="enable-background:new 0 0 612 792;" xml:space="preserve">
<style type="text/css">
	.st0{fill:#E4E417;stroke:#010101;stroke-width:0.7278;stroke-miterlimit:10;}
	.st1{fill:#DE7326;stroke:#010101;stroke-width:0.7278;stroke-miterlimit:10;}
	.st2{fill:#C82026;stroke:#010101;stroke-width:0.7278;stroke-miterlimit:10;}
	.st3{fill:none;stroke:#010101;stroke-width:0.7278;stroke-miterlimit:10;}
</style>
<g>
	<polygon class="st0" points="273.4,400 278.3,415.5 308.8,424.9 328.6,417.4 349.8,398.2 353.7,368.4 346.9,374.3 350.5,351.9 
		330.5,380.7 327.3,360.5 310.5,391.4 304.4,377.6 299.8,396.6 281.6,358.6 283.6,393.8 277.3,377.4 275.6,386.5 258.3,372.8 	"/>
	<polygon class="st1" points="271.8,410 280.9,442.7 316.1,448.8 341.9,424.6 341.6,420.3 352.7,402.3 343,389.3 336.7,403.4 
		325.8,389.8 323,417.2 318.1,412.1 311.5,417.4 308.5,398.5 293.7,407.5 286.9,397.7 279,407 267.9,393 	"/>
	<polygon class="st2" points="308.2,469.8 295.6,469.8 272,435.5 267.3,421.7 270.5,407.7 285.4,434.6 287.1,407 293.4,435.1 
		306.3,404.4 304.3,438.9 312.5,428 311.7,439.3 318.9,417.9 324.3,426.7 336.2,409.2 326.5,434 347.5,421.2 338,439.6 	"/>
	<line class="st3" x1="336.7" y1="403.4" x2="343" y2="389.3"/>
</g>
</svg>
