<?xml version="1.0" encoding="utf-8"?>
<!-- Generator: Adobe Illustrator 19.1.0, SVG Export Plug-In . SVG Version: 6.00 Build 0)  -->
<svg version="1.1" id="Layer_1" xmlns="http://www.w3.org/2000/svg" xmlns:xlink="http://www.w3.org/1999/xlink" x="0px" y="0px"
	 viewBox="0 0 612 792" style="enable-background:new 0 0 612 792;" xml:space="preserve">
<style type="text/css">
	.st0{fill:none;stroke:#010101;stroke-width:0.7809;stroke-miterlimit:10;}
	.st1{fill:#019547;stroke:#010101;stroke-width:0.7809;stroke-miterlimit:10;}
	.st2{fill:#EF3D23;stroke:#010101;stroke-width:0.7809;stroke-miterlimit:10;}
	.st3{fill:none;stroke:#010101;stroke-width:0.5552;stroke-miterlimit:10;}
	.st4{fill:none;stroke:#010101;stroke-width:0.2775;stroke-miterlimit:10;}
	.st5{fill:#A8AAAD;stroke:#010101;stroke-width:0.4804;stroke-miterlimit:10;}
	.st6{fill:none;stroke:#010101;stroke-width:0.3601;stroke-miterlimit:10;}
	.st7{fill:#EC2227;stroke:#010101;stroke-width:0.3601;stroke-miterlimit:10;}
	.st8{fill:none;stroke:#010101;stroke-width:0.1801;stroke-miterlimit:10;}
</style>
<g>
	<ellipse class="st0" cx="308.5" cy="402" rx="6.2" ry="2.3"/>
	<ellipse class="st1" cx="308.5" cy="393.5" rx="6.9" ry="7.7"/>
	<path class="st0" d="M294.6,383.5c0,6.2,3.1,11.5,6.9,11.5"/>
	<path class="st0" d="M318.5,399.7c0-3.1-1.5-5.4-3.1-5.4"/>
	<rect x="304.6" y="388.9" class="st2" width="1.5" height="6.2"/>
	<rect x="310.8" y="388.9" class="st2" width="1.5" height="6.2"/>
	<ellipse class="st3" cx="308.5" cy="405.1" rx="4.6" ry="1.5"/>
	<ellipse class="st4" cx="308.5" cy="407.4" rx="2.3" ry="0.8"/>
	<g>
		<rect x="307.2" y="395.7" class="st5" width="2.5" height="4.3"/>
		<line class="st6" x1="308.3" y1="395.7" x2="308.3" y2="396.4"/>
		<line class="st6" x1="308.3" y1="398.9" x2="308.3" y2="400"/>
		<rect x="307.9" y="396.4" class="st7" width="1.1" height="2.5"/>
		<line class="st8" x1="307.9" y1="397.1" x2="309" y2="397.1"/>
		<line class="st8" x1="307.9" y1="397.5" x2="309" y2="397.5"/>
		<line class="st8" x1="307.9" y1="398.2" x2="309" y2="398.2"/>
	</g>
</g>
</svg>
