<?xml version="1.0" encoding="utf-8"?>
<!-- Generator: Adobe Illustrator 19.1.0, SVG Export Plug-In . SVG Version: 6.00 Build 0)  -->
<svg version="1.1" id="Layer_1" xmlns="http://www.w3.org/2000/svg" xmlns:xlink="http://www.w3.org/1999/xlink" x="0px" y="0px"
	 viewBox="0 0 612 792" style="enable-background:new 0 0 612 792;" xml:space="preserve">
<style type="text/css">
	.st0{fill:#ADD7A1;stroke:#010101;stroke-width:3.8467;stroke-miterlimit:10;}
	.st1{fill:#11A049;stroke:#010101;stroke-width:1.9233;stroke-miterlimit:10;}
	.st2{fill:#11A049;stroke:#010101;stroke-width:1.4556;stroke-miterlimit:10;}
	.st3{fill:none;stroke:#010101;stroke-width:3.8467;stroke-miterlimit:10;}
	.st4{fill:none;stroke:#0D6B37;stroke-width:1.9233;stroke-miterlimit:10;}
	.st5{fill:none;stroke:#010101;stroke-width:1.4556;stroke-miterlimit:10;}
</style>
<g>
	<circle class="st0" cx="306" cy="389.6" r="150.8"/>
	
		<rect x="282.9" y="218.5" transform="matrix(-1 -4.728608e-004 4.728608e-004 -1 621.7851 449.5455)" class="st1" width="56.2" height="12.3"/>
	
		<rect x="296.4" y="231" transform="matrix(-1 -4.728608e-004 4.728608e-004 -1 617.9929 469.833)" class="st1" width="25.4" height="7.7"/>
	
		<rect x="269.5" y="213.2" transform="matrix(-1 -4.728608e-004 4.728608e-004 -1 618.9149 431.9464)" class="st2" width="80" height="5.4"/>
	
		<rect x="158.7" y="269.7" transform="matrix(-0.7074 0.7068 -0.7068 -0.7074 513.8636 339.077)" class="st1" width="56.2" height="12.3"/>
	
		<rect x="179.9" y="280.6" transform="matrix(-0.7074 0.7068 -0.7068 -0.7074 529.8409 349.4876)" class="st1" width="25.4" height="7.7"/>
	
		<rect x="139.5" y="268" transform="matrix(-0.7074 0.7068 -0.7068 -0.7074 497.8256 335.3042)" class="st2" width="80" height="5.4"/>
	
		<rect x="403.7" y="276.4" transform="matrix(-0.7068 -0.7074 0.7074 -0.7068 537.058 787.6166)" class="st1" width="56.2" height="12.3"/>
	
		<rect x="410.6" y="284.5" transform="matrix(-0.7068 -0.7074 0.7074 -0.7068 518.4026 791.5521)" class="st1" width="25.4" height="7.7"/>
	
		<rect x="397" y="272.6" transform="matrix(-0.7068 -0.7074 0.7074 -0.7068 551.0636 778.9454)" class="st2" width="80" height="5.4"/>
	
		<rect x="113.1" y="380.5" transform="matrix(-4.728609e-004 1 -1 -4.728609e-004 527.9272 245.6194)" class="st1" width="56.2" height="12.3"/>
	
		<rect x="138.7" y="384.7" transform="matrix(-4.728609e-004 1 -1 -4.728609e-004 539.97 237.3698)" class="st1" width="25.4" height="7.7"/>
	
		<rect x="92.4" y="385.4" transform="matrix(-4.728609e-004 1 -1 -4.728609e-004 520.561 255.8564)" class="st2" width="80" height="5.4"/>
	
		<rect x="442.7" y="384.9" transform="matrix(4.728608e-004 -1 1 4.728608e-004 79.5039 861.6646)" class="st1" width="56.2" height="12.3"/>
	
		<rect x="447.9" y="385.3" transform="matrix(4.728608e-004 -1 1 4.728608e-004 71.2582 849.6275)" class="st1" width="25.4" height="7.7"/>
	
		<rect x="439.6" y="386.9" transform="matrix(4.728608e-004 -1 1 4.728608e-004 89.7361 869.0273)" class="st2" width="80" height="5.4"/>
	<rect x="275.2" y="547.5" class="st1" width="56.2" height="12.3"/>
	<rect x="292.5" y="539.6" class="st1" width="25.4" height="7.7"/>
	<rect x="264.7" y="559.7" class="st2" width="80" height="5.4"/>
	
		<rect x="399.4" y="496.3" transform="matrix(0.7074 -0.7068 0.7068 0.7074 -230.054 449.1219)" class="st1" width="56.2" height="12.3"/>
	
		<rect x="408.9" y="490.1" transform="matrix(0.7074 -0.7068 0.7068 0.7074 -225.7446 442.5084)" class="st1" width="25.4" height="7.7"/>
	
		<rect x="394.7" y="505" transform="matrix(0.7074 -0.7068 0.7068 0.7074 -231.6156 455.7607)" class="st2" width="80" height="5.4"/>
	
		<rect x="154.4" y="489.7" transform="matrix(0.7068 0.7074 -0.7074 0.7068 404.2774 16.3061)" class="st1" width="56.2" height="12.3"/>
	
		<rect x="178.3" y="486.2" transform="matrix(0.7068 0.7074 -0.7074 0.7068 402.6462 8.5736)" class="st1" width="25.4" height="7.7"/>
	
		<rect x="137.3" y="500.4" transform="matrix(0.7068 0.7074 -0.7074 0.7068 407.8716 22.1113)" class="st2" width="80" height="5.4"/>
	<line class="st3" x1="198.3" y1="284.2" x2="282.2" y2="284.2"/>
	<line class="st3" x1="251.4" y1="339.6" x2="447.6" y2="339.6"/>
	<line class="st3" x1="163.7" y1="339.6" x2="191.4" y2="339.6"/>
	<line class="st3" x1="409.1" y1="395.8" x2="456" y2="395.8"/>
	<line class="st3" x1="155.2" y1="395.8" x2="191.4" y2="395.8"/>
	<line class="st3" x1="166.8" y1="448.1" x2="386" y2="448.1"/>
	<line class="st3" x1="299.8" y1="505" x2="402.9" y2="505"/>
	<line class="st3" x1="300.6" y1="339.6" x2="300.6" y2="395.8"/>
	<line class="st3" x1="325.2" y1="284.2" x2="413.7" y2="284.2"/>
	<line class="st3" x1="251.4" y1="395.8" x2="349.1" y2="395.8"/>
	<circle class="st4" cx="306" cy="388.1" r="150.8"/>
	<path class="st5" d="M406.8,185"/>
</g>
</svg>
