<?xml version="1.0" encoding="utf-8"?>
<!-- Generator: Adobe Illustrator 19.1.0, SVG Export Plug-In . SVG Version: 6.00 Build 0)  -->
<svg version="1.1" id="Layer_1" xmlns="http://www.w3.org/2000/svg" xmlns:xlink="http://www.w3.org/1999/xlink" x="0px" y="0px"
	 viewBox="0 0 612 792" style="enable-background:new 0 0 612 792;" xml:space="preserve">
<style type="text/css">
	.st0{fill:#E4E417;stroke:#010101;stroke-width:1.4556;stroke-miterlimit:10;}
	.st1{fill:#DE7326;stroke:#010101;stroke-width:1.4556;stroke-miterlimit:10;}
	.st2{fill:#C82026;stroke:#010101;stroke-width:1.4556;stroke-miterlimit:10;}
	.st3{fill:none;stroke:#010101;stroke-width:1.4556;stroke-miterlimit:10;}
</style>
<g>
	<polygon class="st0" points="241.9,375.2 251.7,406.1 312.7,424.9 352.2,410 394.6,371.6 402.5,311.9 388.9,323.7 396,279 
		356.1,336.5 349.7,296.2 316.1,358 303.9,330.4 294.6,368.4 258.3,292.4 262.3,362.8 249.6,330 246.3,348.2 211.6,320.7 	"/>
	<polygon class="st1" points="238.7,395.1 256.9,460.6 327.3,472.8 378.9,424.3 378.2,415.8 400.4,379.8 381,353.7 368.5,382 
		346.6,354.8 341.1,409.5 331.3,399.3 318,410 312.1,372.2 282.5,390.1 268.8,370.5 253.1,389.1 230.8,361.2 	"/>
	<polygon class="st2" points="311.4,514.8 286.2,514.8 239.1,446.2 229.6,418.6 236,390.5 265.9,444.3 269.3,389.1 281.9,445.4 
		307.6,383.9 303.6,453 320.1,431.2 318.5,453.8 332.9,410.9 343.7,428.6 367.4,393.5 348,443.1 390.1,417.6 371,454.3 	"/>
	<line class="st3" x1="368.5" y1="382" x2="381" y2="353.7"/>
</g>
</svg>
