<?xml version="1.0" encoding="utf-8"?>
<!-- Generator: Adobe Illustrator 19.1.0, SVG Export Plug-In . SVG Version: 6.00 Build 0)  -->
<svg version="1.1" id="Layer_1" xmlns="http://www.w3.org/2000/svg" xmlns:xlink="http://www.w3.org/1999/xlink" x="0px" y="0px"
	 viewBox="0 0 612 792" style="enable-background:new 0 0 612 792;" xml:space="preserve">
<style type="text/css">
	.st0{fill:#2BACE2;stroke:#010101;stroke-width:0.9629;stroke-miterlimit:10;}
	.st1{fill:none;stroke:#010101;stroke-width:0.9629;stroke-miterlimit:10;}
	.st2{fill:none;stroke:#010101;stroke-width:0.9003;stroke-miterlimit:10;}
	.st3{fill:#010101;stroke:#010101;stroke-width:0.9629;stroke-miterlimit:10;}
	.st4{fill:#EC2227;stroke:#010101;stroke-width:0.9003;stroke-miterlimit:10;}
	.st5{fill:#A8AAAD;stroke:#010101;stroke-width:0.4804;stroke-miterlimit:10;}
	.st6{fill:none;stroke:#010101;stroke-width:0.3601;stroke-miterlimit:10;}
	.st7{fill:#EC2227;stroke:#010101;stroke-width:0.3601;stroke-miterlimit:10;}
	.st8{fill:none;stroke:#010101;stroke-width:0.1801;stroke-miterlimit:10;}
	.st9{fill:#010101;stroke:#010101;stroke-width:0.9003;stroke-miterlimit:10;}
</style>
<g>
	<rect x="293.5" y="395.4" class="st0" width="26.3" height="6.8"/>
	<line class="st1" x1="299.6" y1="395.4" x2="299.6" y2="389.3"/>
	<line class="st1" x1="312.2" y1="395.4" x2="312.2" y2="389.3"/>
	<path class="st2" d="M322.7,400.5c0-2.5-1.4-4.7-2.9-4.7"/>
	<path class="st2" d="M290.3,400.5c0-2.5,1.4-4.7,2.9-4.7"/>
	<rect x="294.6" y="387.9" class="st3" width="6.5" height="1.8"/>
	<rect x="310.4" y="387.9" class="st3" width="6.5" height="1.8"/>
	<rect x="288.1" y="400.1" class="st2" width="3.2" height="0.7"/>
	<rect x="322" y="400.1" class="st2" width="3.2" height="0.7"/>
	<rect x="294.6" y="387.9" class="st4" width="4" height="1.8"/>
	<rect x="310.4" y="387.9" class="st4" width="4" height="1.8"/>
	<g>
		<rect x="296.8" y="396.9" class="st5" width="2.5" height="4.3"/>
		<line class="st6" x1="297.8" y1="396.9" x2="297.8" y2="397.6"/>
		<line class="st6" x1="297.8" y1="400.1" x2="297.8" y2="401.2"/>
		<rect x="297.5" y="397.6" class="st7" width="1.1" height="2.5"/>
		<line class="st8" x1="297.5" y1="398.3" x2="298.6" y2="398.3"/>
		<line class="st8" x1="297.5" y1="398.7" x2="298.6" y2="398.7"/>
		<line class="st8" x1="297.5" y1="399.4" x2="298.6" y2="399.4"/>
	</g>
	<g>
		<rect x="314.8" y="396.5" class="st5" width="2.5" height="4.3"/>
		<line class="st6" x1="315.8" y1="396.5" x2="315.8" y2="397.6"/>
		<line class="st6" x1="315.8" y1="399.7" x2="315.8" y2="400.8"/>
		<rect x="315.5" y="397.6" class="st7" width="1.1" height="2.5"/>
		<line class="st8" x1="315.5" y1="397.9" x2="316.6" y2="397.9"/>
		<line class="st8" x1="315.5" y1="398.7" x2="316.6" y2="398.7"/>
		<line class="st8" x1="315.5" y1="399.4" x2="316.6" y2="399.4"/>
	</g>
	<rect x="295.3" y="403" class="st9" width="4" height="1.8"/>
	<rect x="314.4" y="403" class="st9" width="4" height="1.8"/>
</g>
</svg>
