<?xml version="1.0" encoding="utf-8"?>
<!-- Generator: Adobe Illustrator 19.1.0, SVG Export Plug-In . SVG Version: 6.00 Build 0)  -->
<svg version="1.1" id="Layer_1" xmlns="http://www.w3.org/2000/svg" xmlns:xlink="http://www.w3.org/1999/xlink" x="0px" y="0px"
	 viewBox="0 0 612 792" style="enable-background:new 0 0 612 792;" xml:space="preserve">
<style type="text/css">
	.st0{fill:#BA9BC9;stroke:#010101;stroke-width:2;stroke-miterlimit:10;}
	.st1{fill:#CDCCCC;stroke:#010101;stroke-width:0.9617;stroke-miterlimit:10;}
	.st2{fill:#CDCCCC;stroke:#010101;stroke-width:0.7278;stroke-miterlimit:10;}
	.st3{fill:none;stroke:#010101;stroke-width:2;stroke-miterlimit:10;}
	.st4{fill:#932A8E;stroke:#010101;stroke-width:2;stroke-miterlimit:10;}
</style>
<path class="st0" d="M289.9,429.7V327.2c0-23,18.7-41.6,41.6-41.6c23,0,41.6,18.6,41.6,41.6v143.5h-83.3V450L289.9,429.7
	L289.9,429.7z"/>
<rect x="352.9" y="291.5" transform="matrix(-0.7068 -0.7074 0.7074 -0.7068 417.9084 762.3091)" class="st1" width="28.1" height="6.1"/>
<rect x="356.4" y="295.6" transform="matrix(-0.7068 -0.7074 0.7074 -0.7068 408.6031 764.4009)" class="st1" width="12.7" height="3.8"/>
<rect x="349.5" y="289.6" transform="matrix(-0.7068 -0.7074 0.7074 -0.7068 424.9188 757.973)" class="st2" width="40" height="2.7"/>
<rect x="282.7" y="290.5" transform="matrix(-0.7074 0.7068 -0.7068 -0.7074 714.1615 291.4828)" class="st1" width="28.1" height="6.1"/>
<rect x="293.3" y="295.8" transform="matrix(-0.7074 0.7068 -0.7068 -0.7074 722.1172 296.5958)" class="st1" width="12.7" height="3.8"/>
<rect x="273.1" y="289.6" transform="matrix(-0.7074 0.7068 -0.7068 -0.7074 706.0828 289.643)" class="st2" width="40" height="2.7"/>
<rect x="318.1" y="275.7" class="st1" width="28.1" height="6.1"/>
<rect x="324.9" y="281.9" class="st1" width="12.7" height="3.9"/>
<rect x="311.5" y="273.1" class="st2" width="40" height="2.7"/>
<rect x="362.8" y="473.9" transform="matrix(0.7074 -0.7068 0.7068 0.7074 -226.8425 405.9138)" class="st1" width="28.1" height="6.1"/>
<rect x="367.6" y="470.8" transform="matrix(0.7074 -0.7068 0.7068 0.7074 -224.7019 402.6077)" class="st1" width="12.7" height="3.8"/>
<rect x="360.5" y="478.2" transform="matrix(0.7074 -0.7068 0.7068 0.7074 -227.6177 409.2497)" class="st2" width="40" height="2.7"/>
<rect x="270.4" y="472.2" transform="matrix(0.7068 0.7074 -0.7074 0.7068 419.5806 -61.8699)" class="st1" width="28.1" height="6.1"/>
<rect x="282.3" y="470.4" transform="matrix(0.7068 0.7074 -0.7074 0.7068 418.7397 -65.7186)" class="st1" width="12.7" height="3.8"/>
<rect x="261.8" y="477.5" transform="matrix(0.7068 0.7074 -0.7074 0.7068 421.3741 -58.9799)" class="st2" width="40" height="2.7"/>
<rect x="316.7" y="474.6" class="st1" width="28.1" height="6.1"/>
<rect x="325.3" y="470.6" class="st1" width="12.7" height="3.9"/>
<rect x="311.5" y="480.7" class="st2" width="40" height="2.7"/>
<rect x="268.2" y="374.6" transform="matrix(-4.728606e-004 1 -1 -4.728606e-004 660.0436 95.6001)" class="st1" width="28.1" height="6.1"/>
<rect x="281" y="376.6" transform="matrix(-4.728606e-004 1 -1 -4.728606e-004 666.0466 91.3884)" class="st1" width="12.7" height="3.9"/>
<rect x="257.9" y="377" transform="matrix(-4.728606e-004 1 -1 -4.728606e-004 656.3802 100.7132)" class="st2" width="40" height="2.7"/>
<rect x="366.3" y="375.3" transform="matrix(4.728606e-004 -1 1 4.728606e-004 1.7562 758.5444)" class="st1" width="28.1" height="6.1"/>
<rect x="368.9" y="375.5" transform="matrix(4.728606e-004 -1 1 4.728606e-004 -2.3418 752.5569)" class="st1" width="12.7" height="3.9"/>
<rect x="364.7" y="376.3" transform="matrix(4.728606e-004 -1 1 4.728606e-004 6.8654 762.2319)" class="st2" width="40" height="2.7"/>
<line class="st3" x1="289.9" y1="339.2" x2="289.9" y2="329.1"/>
<polyline class="st4" points="290.8,429.7 277.2,429.7 277.2,450 290.8,450 "/>
</svg>
