<?xml version="1.0" encoding="utf-8"?>
<!-- Generator: Adobe Illustrator 19.1.0, SVG Export Plug-In . SVG Version: 6.00 Build 0)  -->
<svg version="1.1" id="Layer_1" xmlns="http://www.w3.org/2000/svg" xmlns:xlink="http://www.w3.org/1999/xlink" x="0px" y="0px"
	 viewBox="0 0 612 792" style="enable-background:new 0 0 612 792;" xml:space="preserve">
<style type="text/css">
	.st0{fill:#F79421;stroke:#010101;stroke-width:0.9617;stroke-miterlimit:10;}
	.st1{fill:#F79421;stroke:#010101;stroke-width:0.7278;stroke-miterlimit:10;}
	.st2{fill:#FEE196;stroke:#010101;stroke-width:2;stroke-miterlimit:10;}
	.st3{fill:#FAA31E;stroke:#010101;stroke-width:2;stroke-miterlimit:10;}
</style>
<rect x="317.5" y="300.9" class="st0" width="28.1" height="6.1"/>
<rect x="324.3" y="307.1" class="st0" width="12.7" height="3.9"/>
<rect x="310.8" y="298.2" class="st1" width="40" height="2.7"/>
<rect x="376.3" y="357.3" transform="matrix(-0.7068 -0.7074 0.7074 -0.7068 411.3743 891.2852)" class="st0" width="28.1" height="6.1"/>
<rect x="379.8" y="361.4" transform="matrix(-0.7068 -0.7074 0.7074 -0.7068 402.069 893.3769)" class="st0" width="12.7" height="3.8"/>
<rect x="373" y="355.4" transform="matrix(-0.7068 -0.7074 0.7074 -0.7068 418.3847 886.9492)" class="st1" width="40" height="2.7"/>
<rect x="259" y="355.6" transform="matrix(-0.7074 0.7068 -0.7068 -0.7074 719.7964 419.3562)" class="st0" width="28.1" height="6.1"/>
<rect x="269.7" y="360.9" transform="matrix(-0.7074 0.7068 -0.7068 -0.7074 727.752 424.4697)" class="st0" width="12.7" height="3.8"/>
<rect x="249.5" y="354.7" transform="matrix(-0.7074 0.7068 -0.7068 -0.7074 711.753 417.4315)" class="st1" width="40" height="2.7"/>
<polygon class="st2" points="230.2,424.3 255.8,449.9 404.2,449.9 429.8,424.3 444,424.3 330.7,311 217.6,424.1 217.6,424.3 "/>
<rect x="196.5" y="420.8" transform="matrix(-4.728604e-004 1 -1 -4.728604e-004 634.5875 213.5614)" class="st0" width="28.1" height="6.1"/>
<rect x="209.3" y="422.9" transform="matrix(-4.728604e-004 1 -1 -4.728604e-004 640.5901 209.4497)" class="st0" width="12.7" height="3.9"/>
<rect x="186.2" y="423.3" transform="matrix(-4.728604e-004 1 -1 -4.728604e-004 630.9238 218.6743)" class="st1" width="40" height="2.7"/>
<rect x="231.4" y="446.7" transform="matrix(0.7068 0.7074 -0.7074 0.7068 390.1567 -41.7548)" class="st0" width="28.1" height="6.1"/>
<rect x="243.4" y="444.9" transform="matrix(0.7068 0.7074 -0.7074 0.7068 389.301 -45.6389)" class="st0" width="12.7" height="3.8"/>
<rect x="222.9" y="452.1" transform="matrix(0.7068 0.7074 -0.7074 0.7068 391.9503 -38.8647)" class="st1" width="40" height="2.7"/>
<rect x="398.8" y="448.3" transform="matrix(0.7074 -0.7068 0.7068 0.7074 -198.2523 423.8763)" class="st0" width="28.1" height="6.1"/>
<rect x="403.6" y="445.2" transform="matrix(0.7074 -0.7068 0.7068 0.7074 -196.1118 420.5699)" class="st0" width="12.7" height="3.8"/>
<rect x="396.5" y="452.6" transform="matrix(0.7074 -0.7068 0.7068 0.7074 -199.0276 427.2119)" class="st1" width="40" height="2.7"/>
<rect x="316" y="454.2" class="st0" width="28.1" height="6.1"/>
<rect x="324.6" y="450.3" class="st0" width="12.7" height="3.9"/>
<rect x="310.8" y="460.3" class="st1" width="40" height="2.7"/>
<rect x="436.3" y="422.1" transform="matrix(4.728604e-004 -1 1 4.728604e-004 24.8721 875.3151)" class="st0" width="28.1" height="6.1"/>
<rect x="438.9" y="422.3" transform="matrix(4.728604e-004 -1 1 4.728604e-004 20.724 869.2778)" class="st0" width="12.7" height="3.9"/>
<rect x="434.7" y="423.2" transform="matrix(4.728604e-004 -1 1 4.728604e-004 29.9814 879.0025)" class="st1" width="40" height="2.7"/>
<polyline class="st3" points="389.5,448.9 389.5,460.7 363.9,460.7 363.9,448.9 "/>
</svg>
