<?xml version="1.0" encoding="utf-8"?>
<!-- Generator: Adobe Illustrator 19.1.0, SVG Export Plug-In . SVG Version: 6.00 Build 0)  -->
<svg version="1.1" id="Layer_1" xmlns="http://www.w3.org/2000/svg" xmlns:xlink="http://www.w3.org/1999/xlink" x="0px" y="0px"
	 viewBox="0 0 612 792" style="enable-background:new 0 0 612 792;" xml:space="preserve">
<style type="text/css">
	.st0{fill:#AFDAF4;stroke:#010101;stroke-width:2;stroke-miterlimit:10;}
	.st1{fill:#36469B;stroke:#010101;stroke-width:0.9617;stroke-miterlimit:10;}
	.st2{fill:#36469B;stroke:#010101;stroke-width:0.7278;stroke-miterlimit:10;}
	.st3{fill:#1072BA;stroke:#010101;stroke-miterlimit:10;}
	.st4{fill:none;stroke:#010101;stroke-width:2;stroke-miterlimit:10;}
</style>
<rect x="223.6" y="349.8" class="st0" width="215.3" height="67.8"/>
<rect x="205.6" y="342.3" transform="matrix(-0.7074 0.7068 -0.7068 -0.7074 619.0895 434.5396)" class="st1" width="28.1" height="6.1"/>
<rect x="216.2" y="347.8" transform="matrix(-0.7074 0.7068 -0.7068 -0.7074 627.0951 439.7734)" class="st1" width="12.7" height="3.8"/>
<rect x="195.9" y="341.5" transform="matrix(-0.7074 0.7068 -0.7068 -0.7074 611.0107 432.7)" class="st2" width="40" height="2.7"/>
<rect x="429" y="343.3" transform="matrix(-0.7068 -0.7074 0.7074 -0.7068 511.1942 904.7182)" class="st1" width="28.1" height="6.1"/>
<rect x="432.5" y="347.4" transform="matrix(-0.7068 -0.7074 0.7074 -0.7068 501.8535 906.7247)" class="st1" width="12.7" height="3.8"/>
<rect x="425.7" y="341.5" transform="matrix(-0.7068 -0.7074 0.7074 -0.7068 518.2044 900.3821)" class="st2" width="40" height="2.7"/>
<rect x="428.4" y="419.3" transform="matrix(0.7074 -0.7068 0.7068 0.7074 -169.0999 436.3376)" class="st1" width="28.1" height="6.1"/>
<rect x="433.2" y="416.2" transform="matrix(0.7074 -0.7068 0.7068 0.7074 -166.9593 433.0315)" class="st1" width="12.7" height="3.8"/>
<rect x="426.1" y="423.7" transform="matrix(0.7074 -0.7068 0.7068 0.7074 -169.9103 439.6588)" class="st2" width="40" height="2.7"/>
<rect x="204.9" y="418.3" transform="matrix(0.7068 0.7074 -0.7074 0.7068 362.2915 -31.3358)" class="st1" width="28.1" height="6.1"/>
<rect x="216.9" y="416.6" transform="matrix(0.7068 0.7074 -0.7074 0.7068 361.4859 -35.1991)" class="st1" width="12.7" height="3.8"/>
<rect x="196.4" y="423.7" transform="matrix(0.7068 0.7074 -0.7074 0.7068 364.0851 -28.4459)" class="st2" width="40" height="2.7"/>
<rect x="314.7" y="339.2" class="st1" width="28.1" height="6.1"/>
<rect x="321.5" y="345.4" class="st1" width="12.7" height="3.9"/>
<rect x="308.1" y="336.5" class="st2" width="40" height="2.7"/>
<rect x="313.1" y="421.5" class="st1" width="28.1" height="6.1"/>
<rect x="321.7" y="417.6" class="st1" width="12.7" height="3.9"/>
<rect x="307.8" y="427.6" class="st2" width="40" height="2.7"/>
<rect x="202.8" y="379.8" transform="matrix(-4.728606e-004 1 -1 -4.728606e-004 599.8305 166.2701)" class="st1" width="28.1" height="6.1"/>
<rect x="215.5" y="381.9" transform="matrix(-4.728606e-004 1 -1 -4.728606e-004 605.8331 162.1585)" class="st1" width="12.7" height="3.9"/>
<rect x="192.4" y="382.3" transform="matrix(-4.728606e-004 1 -1 -4.728606e-004 596.1169 171.4331)" class="st2" width="40" height="2.7"/>
<rect x="431.9" y="381.5" transform="matrix(4.728606e-004 -1 1 4.728606e-004 61.2119 830.3468)" class="st1" width="28.1" height="6.1"/>
<rect x="434.5" y="381.7" transform="matrix(4.728606e-004 -1 1 4.728606e-004 57.0139 824.3592)" class="st1" width="12.7" height="3.9"/>
<rect x="430.4" y="382.5" transform="matrix(4.728606e-004 -1 1 4.728606e-004 66.3212 834.0345)" class="st2" width="40" height="2.7"/>
<polyline class="st3" points="269,416.6 269,425.2 251,425.2 251,416.6 "/>
<line class="st4" x1="388.7" y1="349.8" x2="403.1" y2="349.8"/>
</svg>
